<?xml version="1.0" encoding="UTF-8" standalone="no"?>
<svg
   version="1.0"
   width="1076.000000pt"
   height="1656.000000pt"
   viewBox="0 0 1076.000000 1656.000000"
   preserveAspectRatio="xMidYMid meet"
   id="svg4"
   sodipodi:docname="logo_icon.svg"
   inkscape:version="1.4 (86a8ad7, 2024-10-11)"
   xmlns:inkscape="http://www.inkscape.org/namespaces/inkscape"
   xmlns:sodipodi="http://sodipodi.sourceforge.net/DTD/sodipodi-0.dtd"
   xmlns="http://www.w3.org/2000/svg"
   xmlns:svg="http://www.w3.org/2000/svg">
  <defs
     id="defs4" />
  <sodipodi:namedview
     id="namedview4"
     pagecolor="#ffffff"
     bordercolor="#000000"
     borderopacity="0.25"
     inkscape:showpageshadow="2"
     inkscape:pageopacity="0.0"
     inkscape:pagecheckerboard="0"
     inkscape:deskcolor="#d1d1d1"
     inkscape:document-units="pt"
     inkscape:zoom="0.25843984"
     inkscape:cx="1098.9018"
     inkscape:cy="872.54348"
     inkscape:window-width="1920"
     inkscape:window-height="1009"
     inkscape:window-x="-8"
     inkscape:window-y="-8"
     inkscape:window-maximized="1"
     inkscape:current-layer="svg4" />
  <g
     transform="translate(0.000000,1656.000000) scale(0.100000,-0.100000)"
     fill="#000000"
     stroke="none"
     id="g4"
     style="fill:#0016aa;fill-opacity:1">
    <path
       d="M3740 16549 c-718 -5 -1471 -10 -1673 -11 l-369 -3 -19 -24 c-17 -20 -19 -40 -19 -155 0 -142 8 -173 50 -192 14 -7 106 -17 205 -23 539 -34 763 -66 966 -137 217 -76 328 -150 413 -276 127 -192 173 -369 196 -753 12 -205 26 -1319 35 -2730 9 -1421 20 -1699 68 -1792 25 -47 71 -87 387 -337 167 -132 359 -287 427 -343 100 -83 124 -99 137 -90 13 11 16 204 26 1627 21 3199 43 4006 119 4249 72 233 372 427 811 525 218 48 319 58 652 65 392 8 359 -8 366 179 6 162 0 195 -36 213 -34 18 -834 20 -2742 8z"
       id="path1"
       style="fill:#0b2d5a;fill-opacity:1" />
    <path
       d="M1970 13566 c-88 -76 -202 -204 -320 -361 -266 -354 -473 -803 -549 -1185 -35 -178 -42 -248 -48 -466 -13 -462 48 -742 247 -1133 289 -569 859 -1235 1635 -1912 200 -174 446 -376 960 -789 942 -756 1270 -1042 1580 -1376 516 -556 958 -1247 1124 -1757 84 -259 106 -432 106 -842 0 -320 -9 -445 -46 -627 -91 -455 -369 -1039 -682 -1431 -259 -325 -593 -591 -1007 -801 -378 -192 -728 -295 -1143 -337 -172 -17 -545 -7 -717 20 -427 66 -946 261 -1318 496 -226 141 -492 360 -634 521 -189 212 -408 545 -563 854 -144 288 -223 547 -271 890 -21 156 -30 684 -15 890 44 580 210 1168 441 1559 29 49 33 81 12 81 -13 0 -164 -205 -228 -310 -239 -394 -443 -1010 -511 -1545 -22 -174 -25 -643 -5 -805 30 -245 93 -542 160 -760 151 -485 397 -876 822 -1300 414 -415 950 -745 1497 -924 650 -212 1565 -274 2271 -155 712 120 1381 467 1889 980 278 282 470 553 666 944 261 519 411 1032 479 1635 19 170 16 564 -5 735 -76 603 -252 1204 -498 1699 -283 567 -777 1188 -1333 1675 -389 340 -614 514 -1783 1383 -559 416 -987 776 -1483 1249 -539 513 -871 983 -970 1368 -64 252 -83 571 -46 796 52 323 141 574 321 906 47 85 85 165 85 177 0 40 -41 25 -120 -42z"
       id="path2"
       style="fill:#462658;fill-opacity:1" />
    <path
       d="M3574 7125 c-26 -39 -33 -237 -34 -925 0 -916 -21 -1196 -110 -1484 -59 -189 -172 -385 -298 -514 -116 -120 -234 -183 -419 -222 -86 -19 -147 -23 -499 -29 -276 -6 -407 -12 -422 -20 -22 -12 -22 -15 -20 -179 l3 -167 30 -15 c27 -13 250 -15 1930 -12 1997 4 2617 11 2673 32 18 7 37 20 42 30 12 22 12 224 1 324 -11 103 -9 102 -248 110 -534 19 -764 57 -978 164 -213 106 -348 245 -464 479 -95 190 -147 375 -175 623 -17 147 -42 544 -51 815 -9 243 -20 321 -50 366 -28 43 -186 163 -543 414 -133 94 -263 185 -288 203 -25 17 -50 32 -55 32 -5 0 -16 -11 -25 -25z"
       id="path3"
       style="fill:#0b2d5a;fill-opacity:1" />
    <path
       d="M10443 6788 c-31 -34 -41 -57 -212 -481 -219 -541 -295 -717 -421 -972 -263 -534 -440 -750 -800 -975 -242 -152 -437 -210 -707 -210 -99 0 -131 -9 -153 -43 -17 -27 -25 -191 -15 -323 6 -85 9 -96 31 -111 41 -26 149 -31 924 -43 772 -12 987 -8 1016 21 23 23 55 172 173 794 175 921 230 1185 396 1906 47 201 85 380 85 397 0 36 -6 39 -121 52 -135 16 -172 13 -196 -12z"
       id="path4"
       style="fill:#0b2d5a;fill-opacity:1" />
  </g>
</svg>
